<svg version="1.1" id="Layer_1" xmlns="http://www.w3.org/2000/svg" xmlns:xlink="http://www.w3.org/1999/xlink" x="0px" y="0px"
	 width="100%" viewBox="0 0 512 512" enable-background="new 0 0 512 512" xml:space="preserve">
<path fill="#FFFFFF" opacity="1.000000" stroke="none" 
	d="
M311.000000,1.000003 
	C378.273895,1.000000 445.547821,1.000000 513.000000,1.000000 
	C513.000000,98.687492 513.000000,196.375092 512.627808,294.411194 
	C507.915466,273.100403 487.350494,255.489716 463.658417,256.903076 
	C453.860687,257.487579 443.981293,257.367645 434.171509,256.894684 
	C424.712921,256.438629 416.129822,258.748871 408.146362,263.430267 
	C395.193817,271.025360 387.385254,282.706451 385.228638,297.231628 
	C383.218994,310.767212 385.887054,323.801208 394.963074,334.902954 
	C403.830505,345.749573 414.947083,352.305084 429.063660,352.948029 
	C441.788727,353.527618 454.537476,353.567932 467.268677,354.038879 
	C474.183228,354.294678 480.157257,362.397949 480.255096,368.748138 
	C480.375580,376.572327 473.331116,383.765778 467.265503,383.986237 
	C456.697571,384.370422 446.111847,385.117950 435.563812,384.777435 
	C431.341187,384.641144 426.509796,382.896240 423.219849,380.288452 
	C420.141754,377.848572 418.736328,373.298523 416.376648,369.308411 
	C406.628326,369.308411 395.877502,369.308411 384.158478,369.308411 
	C385.130554,374.037598 385.963928,378.290527 386.882172,382.524994 
	C391.076477,401.867828 412.022064,417.851013 431.952423,417.084686 
	C443.933777,416.623962 455.959320,417.341248 467.943542,416.919037 
	C485.381622,416.304657 498.376038,407.863556 506.941833,392.801178 
	C509.412201,388.457245 511.004913,383.614197 513.000000,379.000000 
	C513.000000,423.626434 513.000000,468.252899 513.000000,513.000000 
	C395.979126,513.000000 278.958221,513.000000 161.468658,512.531372 
	C161.000000,501.793213 161.000000,491.523743 161.000000,481.000000 
	C158.833221,481.000000 157.194229,481.000000 155.555252,481.000000 
	C121.558144,481.000000 87.559464,481.190582 53.564671,480.909790 
	C39.192894,480.791077 33.113445,474.621124 33.096886,460.659058 
	C32.935787,324.837463 32.927578,189.015549 33.109318,53.194023 
	C33.127991,39.237640 39.230328,33.153473 53.211239,33.111401 
	C130.537292,32.878708 207.864410,32.998558 285.191162,33.012802 
	C286.445618,33.013035 287.700043,33.205109 289.000000,33.311382 
	C289.000000,55.707764 289.108215,77.703445 288.962067,99.697441 
	C288.864197,114.426704 303.615936,129.095001 318.091736,129.025528 
	C338.922821,128.925552 359.754730,128.995361 380.586304,129.010208 
	C382.014862,129.011215 383.443298,129.158096 385.244934,129.257797 
	C385.244934,145.378067 385.244934,161.119995 385.244934,176.674225 
	C396.054108,176.674225 406.461334,176.674225 417.000000,176.674225 
	C417.000000,155.195435 416.884613,134.041046 417.082642,112.889587 
	C417.131012,107.722374 415.404266,103.835243 411.827545,100.270943 
	C381.844086,70.391617 351.959900,40.412617 321.972076,10.537655 
	C318.546906,7.125379 314.668335,4.168203 311.000000,1.000003 
M256.544708,268.972290 
	C248.053543,276.641235 242.640274,286.269226 241.171051,297.429504 
	C239.375320,311.069885 242.025421,324.064331 251.025726,335.078430 
	C259.743408,345.746674 270.840912,352.270538 284.778046,352.939240 
	C297.667999,353.557739 310.587219,353.545441 323.484100,354.051147 
	C329.926941,354.303802 336.247528,362.046631 336.254517,368.969025 
	C336.261658,376.045532 329.923157,383.627289 323.544830,383.944885 
	C312.817810,384.479004 302.041229,385.327667 291.345886,384.806061 
	C281.411957,384.321533 274.906891,380.435913 273.619843,369.216431 
	C262.865814,369.216431 252.102798,369.216431 240.169037,369.216431 
	C241.156021,373.995758 242.012573,378.369873 242.966339,382.722717 
	C247.151978,401.825439 267.713898,417.563507 287.178284,417.051117 
	C298.003876,416.766174 308.858063,416.648071 319.671753,417.106171 
	C329.111664,417.506104 337.725464,415.326324 345.723755,410.655640 
	C358.686371,403.085968 366.504211,391.436676 368.789703,376.922577 
	C370.987000,362.968811 367.967834,349.489105 358.663177,338.409698 
	C349.887421,327.960052 338.654755,321.454437 324.587067,321.013855 
	C311.852112,320.614990 299.106079,320.498688 286.379669,319.929169 
	C280.131927,319.649597 273.715942,312.203369 273.743073,304.892395 
	C273.767426,298.320770 279.911652,290.336273 286.591492,290.037170 
	C297.155579,289.564026 307.735352,288.965912 318.299652,289.102722 
	C329.053345,289.242004 334.990540,294.749420 336.489899,304.737854 
	C347.251801,304.737854 358.008759,304.737854 368.998871,304.737854 
	C368.998871,302.005676 369.250610,299.495728 368.920898,297.064606 
	C368.646484,295.041138 367.522797,293.148438 367.060272,291.132416 
	C362.712402,272.182098 342.455078,256.583252 323.184937,256.964447 
	C313.022461,257.165497 302.825714,257.468872 292.692963,256.884705 
	C279.159943,256.104523 267.428192,259.973297 256.544708,268.972290 
M157.768311,290.000000 
	C161.087631,290.086273 164.586090,289.518280 167.695877,290.369812 
	C182.730881,294.486725 191.360550,304.814728 192.260330,320.680237 
	C203.128418,320.680237 214.001877,320.680237 225.012680,320.680237 
	C225.636368,303.562042 219.722168,288.916138 208.375458,277.135101 
	C188.300476,256.291748 163.585327,251.473465 136.848007,261.259369 
	C117.174171,268.460052 104.426369,283.300262 99.085571,303.806793 
	C97.748032,308.942413 97.188446,314.395233 97.091232,319.717255 
	C96.829636,334.039215 95.676636,348.527832 97.355988,362.655701 
	C99.427734,380.084747 108.245071,394.692657 122.768608,405.226410 
	C137.207428,415.698730 153.762924,419.240448 170.960312,416.722992 
	C187.931229,414.238678 202.514099,406.101288 212.708603,391.708191 
	C220.800293,380.283905 225.916138,367.777924 224.873611,353.000122 
	C214.781601,353.000122 204.991028,353.000092 195.200439,353.000092 
	C194.239838,353.000092 193.279236,353.000122 192.376663,353.000122 
	C192.018341,355.644928 191.886566,357.919769 191.385040,360.109985 
	C187.880249,375.415558 173.956131,385.163544 158.847153,384.063782 
	C143.653183,382.957855 131.839508,372.384033 130.290314,357.950409 
	C128.912018,345.109161 129.652573,331.991730 130.086914,319.017242 
	C130.610352,303.381104 141.927673,292.330048 157.768311,290.000000 
z"/>
<path fill="#000000" opacity="1.000000" stroke="none" 
	d="
M310.531342,1.000003 
	C314.668335,4.168203 318.546906,7.125379 321.972076,10.537655 
	C351.959900,40.412617 381.844086,70.391617 411.827545,100.270943 
	C415.404266,103.835243 417.131012,107.722374 417.082642,112.889587 
	C416.884613,134.041046 417.000000,155.195435 417.000000,176.674225 
	C406.461334,176.674225 396.054108,176.674225 385.244934,176.674225 
	C385.244934,161.119995 385.244934,145.378067 385.244934,129.257797 
	C383.443298,129.158096 382.014862,129.011215 380.586304,129.010208 
	C359.754730,128.995361 338.922821,128.925552 318.091736,129.025528 
	C303.615936,129.095001 288.864197,114.426704 288.962067,99.697441 
	C289.108215,77.703445 289.000000,55.707764 289.000000,33.311382 
	C287.700043,33.205109 286.445618,33.013035 285.191162,33.012802 
	C207.864410,32.998558 130.537292,32.878708 53.211239,33.111401 
	C39.230328,33.153473 33.127991,39.237640 33.109318,53.194023 
	C32.927578,189.015549 32.935787,324.837463 33.096886,460.659058 
	C33.113445,474.621124 39.192894,480.791077 53.564671,480.909790 
	C87.559464,481.190582 121.558144,481.000000 155.555252,481.000000 
	C157.194229,481.000000 158.833221,481.000000 161.000000,481.000000 
	C161.000000,491.523743 161.000000,501.793213 161.000000,512.531372 
	C120.645775,513.000000 80.291542,513.000000 39.348511,512.627808 
	C23.206564,508.646027 11.914184,499.712860 5.022161,485.271088 
	C3.701803,482.504364 2.341742,479.756531 0.999999,477.000000 
	C1.000000,330.645782 1.000000,184.291550 1.365153,37.369461 
	C2.124761,36.293324 2.728791,35.841400 2.882863,35.268478 
	C6.284777,22.618427 13.748759,13.138988 25.289204,7.030848 
	C29.690500,4.701324 34.420048,2.991982 39.000000,1.000000 
	C129.354233,1.000000 219.708450,1.000000 310.531342,1.000003 
z"/>
<path fill="#000000" opacity="1.000000" stroke="none" 
	d="
M513.000000,378.531616 
	C511.004913,383.614197 509.412201,388.457245 506.941833,392.801178 
	C498.376038,407.863556 485.381622,416.304657 467.943542,416.919037 
	C455.959320,417.341248 443.933777,416.623962 431.952423,417.084686 
	C412.022064,417.851013 391.076477,401.867828 386.882172,382.524994 
	C385.963928,378.290527 385.130554,374.037598 384.158478,369.308411 
	C395.877502,369.308411 406.628326,369.308411 416.376648,369.308411 
	C418.736328,373.298523 420.141754,377.848572 423.219849,380.288452 
	C426.509796,382.896240 431.341187,384.641144 435.563812,384.777435 
	C446.111847,385.117950 456.697571,384.370422 467.265503,383.986237 
	C473.331116,383.765778 480.375580,376.572327 480.255096,368.748138 
	C480.157257,362.397949 474.183228,354.294678 467.268677,354.038879 
	C454.537476,353.567932 441.788727,353.527618 429.063660,352.948029 
	C414.947083,352.305084 403.830505,345.749573 394.963074,334.902954 
	C385.887054,323.801208 383.218994,310.767212 385.228638,297.231628 
	C387.385254,282.706451 395.193817,271.025360 408.146362,263.430267 
	C416.129822,258.748871 424.712921,256.438629 434.171509,256.894684 
	C443.981293,257.367645 453.860687,257.487579 463.658417,256.903076 
	C487.350494,255.489716 507.915466,273.100403 512.627808,294.879852 
	C513.000000,298.030609 513.000000,301.061188 512.531372,304.545898 
	C501.425812,305.000000 490.788940,305.000000 480.182648,305.000000 
	C479.667328,296.612152 474.732483,290.456116 467.133606,290.135590 
	C455.015442,289.624481 442.829834,289.472321 430.729462,290.162720 
	C420.654022,290.737610 414.763824,302.387238 419.127411,311.426605 
	C422.769440,318.971191 429.595886,320.727264 436.954803,320.928680 
	C447.279175,321.211212 457.629395,320.677521 467.946411,321.072174 
	C485.382965,321.739227 498.376617,330.138184 506.941925,345.199463 
	C509.412201,349.543213 511.004944,354.386017 513.000000,359.000000 
	C513.000000,365.354401 513.000000,371.708801 513.000000,378.531616 
z"/>
<path fill="#FFFFFF" opacity="1.000000" stroke="none" 
	d="
M513.000000,358.531342 
	C511.004944,354.386017 509.412201,349.543213 506.941925,345.199463 
	C498.376617,330.138184 485.382965,321.739227 467.946411,321.072174 
	C457.629395,320.677521 447.279175,321.211212 436.954803,320.928680 
	C429.595886,320.727264 422.769440,318.971191 419.127411,311.426605 
	C414.763824,302.387238 420.654022,290.737610 430.729462,290.162720 
	C442.829834,289.472321 455.015442,289.624481 467.133606,290.135590 
	C474.732483,290.456116 479.667328,296.612152 480.182648,305.000000 
	C490.788940,305.000000 501.425812,305.000000 512.531372,305.000000 
	C513.000000,322.687561 513.000000,340.375122 513.000000,358.531342 
z"/>
<path fill="#FFFFFF" opacity="1.000000" stroke="none" 
	d="
M38.531342,1.000000 
	C34.420048,2.991982 29.690500,4.701324 25.289204,7.030848 
	C13.748759,13.138988 6.284777,22.618427 2.882863,35.268478 
	C2.728791,35.841400 2.124761,36.293324 1.365153,36.900803 
	C1.000000,25.071398 1.000000,13.142795 1.000000,1.000000 
	C13.353403,1.000000 25.708044,1.000000 38.531342,1.000000 
z"/>
<path fill="#FFFFFF" opacity="1.000000" stroke="none" 
	d="
M0.999999,477.468658 
	C2.341742,479.756531 3.701803,482.504364 5.022161,485.271088 
	C11.914184,499.712860 23.206564,508.646027 38.879852,512.627808 
	C26.408699,513.000000 13.817398,513.000000 1.000000,513.000000 
	C1.000000,501.313416 1.000000,489.625366 0.999999,477.468658 
z"/>
<path fill="#000000" opacity="1.000000" stroke="none" 
	d="
M256.791809,268.705841 
	C267.428192,259.973297 279.159943,256.104523 292.692963,256.884705 
	C302.825714,257.468872 313.022461,257.165497 323.184937,256.964447 
	C342.455078,256.583252 362.712402,272.182098 367.060272,291.132416 
	C367.522797,293.148438 368.646484,295.041138 368.920898,297.064606 
	C369.250610,299.495728 368.998871,302.005676 368.998871,304.737854 
	C358.008759,304.737854 347.251801,304.737854 336.489899,304.737854 
	C334.990540,294.749420 329.053345,289.242004 318.299652,289.102722 
	C307.735352,288.965912 297.155579,289.564026 286.591492,290.037170 
	C279.911652,290.336273 273.767426,298.320770 273.743073,304.892395 
	C273.715942,312.203369 280.131927,319.649597 286.379669,319.929169 
	C299.106079,320.498688 311.852112,320.614990 324.587067,321.013855 
	C338.654755,321.454437 349.887421,327.960052 358.663177,338.409698 
	C367.967834,349.489105 370.987000,362.968811 368.789703,376.922577 
	C366.504211,391.436676 358.686371,403.085968 345.723755,410.655640 
	C337.725464,415.326324 329.111664,417.506104 319.671753,417.106171 
	C308.858063,416.648071 298.003876,416.766174 287.178284,417.051117 
	C267.713898,417.563507 247.151978,401.825439 242.966339,382.722717 
	C242.012573,378.369873 241.156021,373.995758 240.169037,369.216431 
	C252.102798,369.216431 262.865814,369.216431 273.619843,369.216431 
	C274.906891,380.435913 281.411957,384.321533 291.345886,384.806061 
	C302.041229,385.327667 312.817810,384.479004 323.544830,383.944885 
	C329.923157,383.627289 336.261658,376.045532 336.254517,368.969025 
	C336.247528,362.046631 329.926941,354.303802 323.484100,354.051147 
	C310.587219,353.545441 297.667999,353.557739 284.778046,352.939240 
	C270.840912,352.270538 259.743408,345.746674 251.025726,335.078430 
	C242.025421,324.064331 239.375320,311.069885 241.171051,297.429504 
	C242.640274,286.269226 248.053543,276.641235 256.791809,268.705841 
z"/>
<path fill="#000000" opacity="1.000000" stroke="none" 
	d="
M157.311462,290.000000 
	C141.927673,292.330048 130.610352,303.381104 130.086914,319.017242 
	C129.652573,331.991730 128.912018,345.109161 130.290314,357.950409 
	C131.839508,372.384033 143.653183,382.957855 158.847153,384.063782 
	C173.956131,385.163544 187.880249,375.415558 191.385040,360.109985 
	C191.886566,357.919769 192.018341,355.644928 192.376663,353.000122 
	C193.279236,353.000122 194.239838,353.000092 195.200439,353.000092 
	C204.991028,353.000092 214.781601,353.000122 224.873611,353.000122 
	C225.916138,367.777924 220.800293,380.283905 212.708603,391.708191 
	C202.514099,406.101288 187.931229,414.238678 170.960312,416.722992 
	C153.762924,419.240448 137.207428,415.698730 122.768608,405.226410 
	C108.245071,394.692657 99.427734,380.084747 97.355988,362.655701 
	C95.676636,348.527832 96.829636,334.039215 97.091232,319.717255 
	C97.188446,314.395233 97.748032,308.942413 99.085571,303.806793 
	C104.426369,283.300262 117.174171,268.460052 136.848007,261.259369 
	C163.585327,251.473465 188.300476,256.291748 208.375458,277.135101 
	C219.722168,288.916138 225.636368,303.562042 225.012680,320.680237 
	C214.001877,320.680237 203.128418,320.680237 192.260330,320.680237 
	C191.360550,304.814728 182.730881,294.486725 167.695877,290.369812 
	C164.586090,289.518280 161.087631,290.086273 157.311462,290.000000 
z"/>
</svg>